<svg xmlns="http://www.w3.org/2000/svg" xmlns:xlink="http://www.w3.org/1999/xlink" version="1.1" width="256" height="256" viewBox="0 0 256 256" xml:space="preserve">
<desc>Created with Fabric.js 1.7.22</desc>
<defs>
</defs>
<g transform="translate(128 128) scale(0.72 0.72)" style="">
	<g style="stroke: none; stroke-width: 0; stroke-dasharray: none; stroke-linecap: butt; stroke-linejoin: miter; stroke-miterlimit: 10; fill: none; fill-rule: nonzero; opacity: 1;" transform="translate(-175.05 -175.05000000000004) scale(3.89 3.89)" >
	<path d="M 83.974 73.678 H 6.026 C 3.25 73.678 1 71.428 1 68.652 v -0.909 h 88 v 0.909 C 89 71.428 86.75 73.678 83.974 73.678 z" style="stroke: none; stroke-width: 1; stroke-dasharray: none; stroke-linecap: butt; stroke-linejoin: miter; stroke-miterlimit: 10; fill: rgb(238,240,245); fill-rule: nonzero; opacity: 1;" transform=" matrix(1 0 0 1 0 0) " stroke-linecap="round" />
	<path d="M 79.004 16.322 c 2.936 0 5.317 2.381 5.317 5.317 v 46.104 H 5.679 V 21.639 c 0 -2.936 2.381 -5.317 5.317 -5.317 H 79.004 z" style="stroke: none; stroke-width: 1; stroke-dasharray: none; stroke-linecap: butt; stroke-linejoin: miter; stroke-miterlimit: 10; fill: rgb(238,240,245); fill-rule: nonzero; opacity: 1;" transform=" matrix(1 0 0 1 0 0) " stroke-linecap="round" />
	<path d="M 78.888 61.743 V 23.965 c 0 -1.019 -0.826 -1.846 -1.846 -1.846 H 52.068 H 37.932 H 12.958 c -1.02 0 -1.846 0.826 -1.846 1.846 v 37.778 v 6 h 67.776 V 61.743 z" style="stroke: none; stroke-width: 1; stroke-dasharray: none; stroke-linecap: butt; stroke-linejoin: miter; stroke-miterlimit: 10; fill: rgb(179,218,254); fill-rule: nonzero; opacity: 1;" transform=" matrix(1 0 0 1 0 0) " stroke-linecap="round" />
	<path d="M 27.196 55.116 l -2.372 -1.583 h -0.012 c 0.722 -0.375 1.221 -1.122 1.221 -1.992 v -2.027 c 0 -1.245 -1.009 -2.254 -2.254 -2.254 h -0.331 c -1.245 0 -2.254 1.009 -2.254 2.254 v 2.027 c 0 0.87 0.499 1.617 1.221 1.992 h -0.017 l -2.369 1.583 c -0.604 0.404 -0.967 1.083 -0.967 1.81 v 3.112 h 4.551 h 4.551 v -3.111 C 28.164 56.2 27.801 55.52 27.196 55.116 z" style="stroke: none; stroke-width: 1; stroke-dasharray: none; stroke-linecap: butt; stroke-linejoin: miter; stroke-miterlimit: 10; fill: rgb(249,208,112); fill-rule: nonzero; opacity: 1;" transform=" matrix(1 0 0 1 0 0) " stroke-linecap="round" />
	<path d="M 41.196 55.116 l -2.372 -1.583 h -0.012 c 0.722 -0.375 1.221 -1.122 1.221 -1.992 v -2.027 c 0 -1.245 -1.009 -2.254 -2.254 -2.254 h -0.331 c -1.245 0 -2.254 1.009 -2.254 2.254 v 2.027 c 0 0.87 0.499 1.617 1.221 1.992 h -0.017 l -2.369 1.583 c -0.604 0.404 -0.967 1.083 -0.967 1.81 v 3.112 h 4.551 h 4.551 v -3.111 C 42.164 56.2 41.801 55.52 41.196 55.116 z" style="stroke: none; stroke-width: 1; stroke-dasharray: none; stroke-linecap: butt; stroke-linejoin: miter; stroke-miterlimit: 10; fill: rgb(249,208,112); fill-rule: nonzero; opacity: 1;" transform=" matrix(1 0 0 1 0 0) " stroke-linecap="round" />
	<path d="M 55.196 55.116 l -2.372 -1.583 h -0.012 c 0.722 -0.375 1.221 -1.122 1.221 -1.992 v -2.027 c 0 -1.245 -1.009 -2.254 -2.254 -2.254 h -0.331 c -1.245 0 -2.254 1.009 -2.254 2.254 v 2.027 c 0 0.87 0.499 1.617 1.221 1.992 h -0.017 l -2.369 1.583 c -0.604 0.404 -0.967 1.083 -0.967 1.81 v 3.112 h 4.551 h 4.551 v -3.111 C 56.164 56.2 55.801 55.52 55.196 55.116 z" style="stroke: none; stroke-width: 1; stroke-dasharray: none; stroke-linecap: butt; stroke-linejoin: miter; stroke-miterlimit: 10; fill: rgb(249,208,112); fill-rule: nonzero; opacity: 1;" transform=" matrix(1 0 0 1 0 0) " stroke-linecap="round" />
	<path d="M 27.196 37.116 l -2.372 -1.583 h -0.012 c 0.722 -0.375 1.221 -1.122 1.221 -1.992 v -2.027 c 0 -1.245 -1.009 -2.254 -2.254 -2.254 h -0.331 c -1.245 0 -2.254 1.009 -2.254 2.254 v 2.027 c 0 0.87 0.499 1.617 1.221 1.992 h -0.017 l -2.369 1.583 c -0.604 0.404 -0.967 1.083 -0.967 1.81 v 3.112 h 4.551 h 4.551 v -3.111 C 28.164 38.2 27.801 37.52 27.196 37.116 z" style="stroke: none; stroke-width: 1; stroke-dasharray: none; stroke-linecap: butt; stroke-linejoin: miter; stroke-miterlimit: 10; fill: rgb(249,208,112); fill-rule: nonzero; opacity: 1;" transform=" matrix(1 0 0 1 0 0) " stroke-linecap="round" />
	<path d="M 41.196 37.116 l -2.372 -1.583 h -0.012 c 0.722 -0.375 1.221 -1.122 1.221 -1.992 v -2.027 c 0 -1.245 -1.009 -2.254 -2.254 -2.254 h -0.331 c -1.245 0 -2.254 1.009 -2.254 2.254 v 2.027 c 0 0.87 0.499 1.617 1.221 1.992 h -0.017 l -2.369 1.583 c -0.604 0.404 -0.967 1.083 -0.967 1.81 v 3.112 h 4.551 h 4.551 v -3.111 C 42.164 38.2 41.801 37.52 41.196 37.116 z" style="stroke: none; stroke-width: 1; stroke-dasharray: none; stroke-linecap: butt; stroke-linejoin: miter; stroke-miterlimit: 10; fill: rgb(249,208,112); fill-rule: nonzero; opacity: 1;" transform=" matrix(1 0 0 1 0 0) " stroke-linecap="round" />
	<path d="M 55.196 37.116 l -2.372 -1.583 h -0.012 c 0.722 -0.375 1.221 -1.122 1.221 -1.992 v -2.027 c 0 -1.245 -1.009 -2.254 -2.254 -2.254 h -0.331 c -1.245 0 -2.254 1.009 -2.254 2.254 v 2.027 c 0 0.87 0.499 1.617 1.221 1.992 h -0.017 l -2.369 1.583 c -0.604 0.404 -0.967 1.083 -0.967 1.81 v 3.112 h 4.551 h 4.551 v -3.111 C 56.164 38.2 55.801 37.52 55.196 37.116 z" style="stroke: none; stroke-width: 1; stroke-dasharray: none; stroke-linecap: butt; stroke-linejoin: miter; stroke-miterlimit: 10; fill: rgb(249,208,112); fill-rule: nonzero; opacity: 1;" transform=" matrix(1 0 0 1 0 0) " stroke-linecap="round" />
	<path d="M 69.196 37.116 l -2.372 -1.583 h -0.012 c 0.722 -0.375 1.221 -1.122 1.221 -1.992 v -2.027 c 0 -1.245 -1.009 -2.254 -2.254 -2.254 h -0.331 c -1.245 0 -2.254 1.009 -2.254 2.254 v 2.027 c 0 0.87 0.499 1.617 1.221 1.992 h -0.017 l -2.369 1.583 c -0.604 0.404 -0.967 1.083 -0.967 1.81 v 3.112 h 4.551 h 4.551 v -3.111 C 70.164 38.2 69.801 37.52 69.196 37.116 z" style="stroke: none; stroke-width: 1; stroke-dasharray: none; stroke-linecap: butt; stroke-linejoin: miter; stroke-miterlimit: 10; fill: rgb(249,208,112); fill-rule: nonzero; opacity: 1;" transform=" matrix(1 0 0 1 0 0) " stroke-linecap="round" />
	<path d="M 27.751 54.284 l -1.315 -0.877 c 0.373 -0.529 0.596 -1.171 0.596 -1.866 v -2.028 c 0 -1.794 -1.459 -3.254 -3.254 -3.254 h -0.331 c -1.794 0 -3.254 1.46 -3.254 3.254 v 2.028 c 0 0.695 0.223 1.336 0.595 1.865 l -1.316 0.879 c -0.883 0.591 -1.411 1.578 -1.411 2.642 v 3.111 c 0 0.553 0.448 1 1 1 h 9.103 c 0.552 0 1 -0.447 1 -1 v -3.111 C 29.164 55.863 28.636 54.876 27.751 54.284 z M 22.193 49.513 c 0 -0.691 0.563 -1.254 1.254 -1.254 h 0.331 c 0.691 0 1.254 0.563 1.254 1.254 v 2.028 c 0 0.69 -0.563 1.253 -1.254 1.253 h -0.331 c -0.691 0 -1.254 -0.563 -1.254 -1.253 V 49.513 z M 27.164 59.038 h -7.103 v -2.111 c 0 -0.395 0.196 -0.76 0.523 -0.979 l 1.947 -1.301 c 0.293 0.087 0.596 0.147 0.916 0.147 h 0.331 c 0.319 0 0.621 -0.06 0.913 -0.146 l 1.949 1.3 c 0.328 0.22 0.524 0.586 0.524 0.979 V 59.038 z" style="stroke: none; stroke-width: 1; stroke-dasharray: none; stroke-linecap: butt; stroke-linejoin: miter; stroke-miterlimit: 10; fill: rgb(7,42,56); fill-rule: nonzero; opacity: 1;" transform=" matrix(1 0 0 1 0 0) " stroke-linecap="round" />
	<path d="M 41.751 54.284 l -1.315 -0.877 c 0.373 -0.529 0.596 -1.171 0.596 -1.866 v -2.028 c 0 -1.794 -1.459 -3.254 -3.254 -3.254 h -0.331 c -1.794 0 -3.254 1.46 -3.254 3.254 v 2.028 c 0 0.695 0.223 1.336 0.595 1.865 l -1.316 0.879 c -0.883 0.591 -1.411 1.578 -1.411 2.642 v 3.111 c 0 0.553 0.448 1 1 1 h 9.103 c 0.552 0 1 -0.447 1 -1 v -3.111 C 43.164 55.863 42.636 54.876 41.751 54.284 z M 36.193 49.513 c 0 -0.691 0.563 -1.254 1.254 -1.254 h 0.331 c 0.691 0 1.254 0.563 1.254 1.254 v 2.028 c 0 0.69 -0.563 1.253 -1.254 1.253 h -0.331 c -0.691 0 -1.254 -0.563 -1.254 -1.253 V 49.513 z M 41.164 59.038 h -7.103 v -2.111 c 0 -0.395 0.196 -0.76 0.523 -0.979 l 1.947 -1.301 c 0.293 0.087 0.596 0.147 0.916 0.147 h 0.331 c 0.319 0 0.621 -0.06 0.913 -0.146 l 1.949 1.3 c 0.328 0.22 0.524 0.586 0.524 0.979 V 59.038 z" style="stroke: none; stroke-width: 1; stroke-dasharray: none; stroke-linecap: butt; stroke-linejoin: miter; stroke-miterlimit: 10; fill: rgb(7,42,56); fill-rule: nonzero; opacity: 1;" transform=" matrix(1 0 0 1 0 0) " stroke-linecap="round" />
	<path d="M 55.75 54.284 l -1.314 -0.877 c 0.373 -0.529 0.596 -1.171 0.596 -1.866 v -2.028 c 0 -1.794 -1.46 -3.254 -3.254 -3.254 h -0.331 c -1.794 0 -3.254 1.46 -3.254 3.254 v 2.028 c 0 0.695 0.223 1.336 0.595 1.865 l -1.317 0.88 c -0.883 0.592 -1.41 1.579 -1.41 2.642 v 3.111 c 0 0.553 0.447 1 1 1 h 9.103 c 0.553 0 1 -0.447 1 -1 v -3.111 C 57.164 55.863 56.636 54.876 55.75 54.284 z M 50.193 49.513 c 0 -0.691 0.563 -1.254 1.254 -1.254 h 0.331 c 0.691 0 1.254 0.563 1.254 1.254 v 2.028 c 0 0.69 -0.563 1.253 -1.254 1.253 h -0.331 c -0.691 0 -1.254 -0.563 -1.254 -1.253 V 49.513 z M 55.164 59.038 h -7.103 v -2.111 c 0 -0.394 0.195 -0.76 0.522 -0.979 l 1.947 -1.301 c 0.293 0.087 0.596 0.148 0.916 0.148 h 0.331 c 0.319 0 0.621 -0.06 0.913 -0.146 l 1.948 1.301 c 0.328 0.219 0.524 0.585 0.524 0.979 V 59.038 z" style="stroke: none; stroke-width: 1; stroke-dasharray: none; stroke-linecap: butt; stroke-linejoin: miter; stroke-miterlimit: 10; fill: rgb(7,42,56); fill-rule: nonzero; opacity: 1;" transform=" matrix(1 0 0 1 0 0) " stroke-linecap="round" />
	<path d="M 27.751 36.285 l -1.315 -0.878 c 0.373 -0.529 0.597 -1.171 0.597 -1.867 v -2.027 c 0 -1.794 -1.459 -3.254 -3.254 -3.254 h -0.331 c -1.794 0 -3.254 1.459 -3.254 3.254 v 2.027 c 0 0.695 0.223 1.336 0.595 1.865 l -1.316 0.879 c -0.883 0.591 -1.411 1.578 -1.411 2.641 v 3.112 c 0 0.552 0.448 1 1 1 h 9.103 c 0.552 0 1 -0.448 1 -1 v -3.111 C 29.164 37.863 28.636 36.875 27.751 36.285 z M 22.193 31.513 c 0 -0.691 0.563 -1.254 1.254 -1.254 h 0.331 c 0.691 0 1.254 0.563 1.254 1.254 v 2.027 c 0 0.691 -0.563 1.254 -1.254 1.254 h -0.331 c -0.691 0 -1.254 -0.563 -1.254 -1.254 V 31.513 z M 27.164 41.039 h -7.103 v -2.112 c 0 -0.394 0.196 -0.76 0.523 -0.979 l 1.947 -1.301 c 0.292 0.087 0.596 0.147 0.916 0.147 h 0.331 c 0.319 0 0.622 -0.061 0.914 -0.147 l 1.949 1.301 c 0.328 0.219 0.523 0.585 0.523 0.979 V 41.039 z" style="stroke: none; stroke-width: 1; stroke-dasharray: none; stroke-linecap: butt; stroke-linejoin: miter; stroke-miterlimit: 10; fill: rgb(7,42,56); fill-rule: nonzero; opacity: 1;" transform=" matrix(1 0 0 1 0 0) " stroke-linecap="round" />
	<path d="M 41.751 36.285 l -1.315 -0.878 c 0.373 -0.529 0.597 -1.171 0.597 -1.867 v -2.027 c 0 -1.794 -1.459 -3.254 -3.254 -3.254 h -0.331 c -1.794 0 -3.254 1.459 -3.254 3.254 v 2.027 c 0 0.695 0.223 1.336 0.595 1.865 l -1.316 0.879 c -0.883 0.591 -1.411 1.578 -1.411 2.641 v 3.112 c 0 0.552 0.448 1 1 1 h 9.103 c 0.552 0 1 -0.448 1 -1 v -3.111 C 43.164 37.863 42.636 36.875 41.751 36.285 z M 36.193 31.513 c 0 -0.691 0.563 -1.254 1.254 -1.254 h 0.331 c 0.691 0 1.254 0.563 1.254 1.254 v 2.027 c 0 0.691 -0.563 1.254 -1.254 1.254 h -0.331 c -0.691 0 -1.254 -0.563 -1.254 -1.254 V 31.513 z M 41.164 41.039 h -7.103 v -2.112 c 0 -0.394 0.196 -0.76 0.523 -0.979 l 1.947 -1.301 c 0.292 0.087 0.596 0.147 0.916 0.147 h 0.331 c 0.319 0 0.622 -0.061 0.914 -0.147 l 1.949 1.301 c 0.328 0.219 0.523 0.585 0.523 0.979 V 41.039 z" style="stroke: none; stroke-width: 1; stroke-dasharray: none; stroke-linecap: butt; stroke-linejoin: miter; stroke-miterlimit: 10; fill: rgb(7,42,56); fill-rule: nonzero; opacity: 1;" transform=" matrix(1 0 0 1 0 0) " stroke-linecap="round" />
	<path d="M 55.751 36.285 l -1.315 -0.878 c 0.373 -0.529 0.597 -1.171 0.597 -1.867 v -2.027 c 0 -1.794 -1.46 -3.254 -3.254 -3.254 h -0.331 c -1.794 0 -3.254 1.459 -3.254 3.254 v 2.027 c 0 0.695 0.223 1.336 0.595 1.865 l -1.317 0.88 c -0.883 0.591 -1.41 1.579 -1.41 2.641 v 3.112 c 0 0.552 0.447 1 1 1 h 9.103 c 0.553 0 1 -0.448 1 -1 v -3.111 C 57.164 37.863 56.636 36.875 55.751 36.285 z M 50.193 31.513 c 0 -0.691 0.563 -1.254 1.254 -1.254 h 0.331 c 0.691 0 1.254 0.563 1.254 1.254 v 2.027 c 0 0.691 -0.563 1.254 -1.254 1.254 h -0.331 c -0.691 0 -1.254 -0.563 -1.254 -1.254 V 31.513 z M 55.164 41.039 h -7.103 v -2.112 c 0 -0.394 0.195 -0.76 0.522 -0.979 l 1.947 -1.301 c 0.293 0.087 0.596 0.148 0.916 0.148 h 0.331 c 0.319 0 0.622 -0.061 0.913 -0.147 l 1.949 1.301 c 0.328 0.219 0.523 0.584 0.523 0.979 V 41.039 z" style="stroke: none; stroke-width: 1; stroke-dasharray: none; stroke-linecap: butt; stroke-linejoin: miter; stroke-miterlimit: 10; fill: rgb(7,42,56); fill-rule: nonzero; opacity: 1;" transform=" matrix(1 0 0 1 0 0) " stroke-linecap="round" />
	<path d="M 69.751 36.285 l -1.315 -0.878 c 0.373 -0.529 0.597 -1.171 0.597 -1.867 v -2.027 c 0 -1.794 -1.46 -3.254 -3.254 -3.254 h -0.331 c -1.794 0 -3.254 1.459 -3.254 3.254 v 2.027 c 0 0.695 0.223 1.336 0.595 1.865 l -1.317 0.88 c -0.883 0.591 -1.41 1.579 -1.41 2.641 v 3.112 c 0 0.552 0.447 1 1 1 h 9.103 c 0.553 0 1 -0.448 1 -1 v -3.111 C 71.164 37.863 70.636 36.875 69.751 36.285 z M 64.193 31.513 c 0 -0.691 0.563 -1.254 1.254 -1.254 h 0.331 c 0.691 0 1.254 0.563 1.254 1.254 v 2.027 c 0 0.691 -0.563 1.254 -1.254 1.254 h -0.331 c -0.691 0 -1.254 -0.563 -1.254 -1.254 V 31.513 z M 69.164 41.039 h -7.103 v -2.112 c 0 -0.394 0.195 -0.76 0.522 -0.979 l 1.947 -1.301 c 0.293 0.087 0.596 0.148 0.916 0.148 h 0.331 c 0.319 0 0.622 -0.061 0.913 -0.147 l 1.949 1.301 c 0.328 0.219 0.523 0.584 0.523 0.979 V 41.039 z" style="stroke: none; stroke-width: 1; stroke-dasharray: none; stroke-linecap: butt; stroke-linejoin: miter; stroke-miterlimit: 10; fill: rgb(7,42,56); fill-rule: nonzero; opacity: 1;" transform=" matrix(1 0 0 1 0 0) " stroke-linecap="round" />
	<rect x="40.16" y="67.74" rx="0" ry="0" width="9.67" height="5.93" style="stroke: none; stroke-width: 1; stroke-dasharray: none; stroke-linecap: butt; stroke-linejoin: miter; stroke-miterlimit: 10; fill: rgb(215,216,219); fill-rule: nonzero; opacity: 1;" transform=" matrix(1 0 0 1 0 0) "/>
	<path d="M 89 66.743 h -3.679 V 21.639 c 0 -3.483 -2.834 -6.317 -6.317 -6.317 H 10.996 c -3.483 0 -6.317 2.834 -6.317 6.317 v 45.104 H 1 c -0.552 0 -1 0.447 -1 1 v 0.909 c 0 3.322 2.703 6.025 6.026 6.025 h 33.138 h 11.672 h 33.138 c 3.323 0 6.026 -2.703 6.026 -6.025 v -0.909 C 90 67.19 89.553 66.743 89 66.743 z M 6.679 21.639 c 0 -2.38 1.937 -4.317 4.317 -4.317 h 68.008 c 2.381 0 4.317 1.937 4.317 4.317 v 45.104 H 50.836 H 39.164 H 6.679 V 21.639 z M 6.026 72.678 c -2.189 0 -3.977 -1.757 -4.025 -3.935 h 2.678 h 34.485 v 3.935 H 6.026 z M 41.164 72.678 v -3.935 h 7.672 v 3.935 H 41.164 z M 83.974 72.678 H 50.836 v -3.935 h 34.485 h 2.678 C 87.95 70.921 86.163 72.678 83.974 72.678 z" style="stroke: none; stroke-width: 1; stroke-dasharray: none; stroke-linecap: butt; stroke-linejoin: miter; stroke-miterlimit: 10; fill: rgb(7,42,56); fill-rule: nonzero; opacity: 1;" transform=" matrix(1 0 0 1 0 0) " stroke-linecap="round" />
	<path d="M 65.613 59.589 c -0.553 0 -1 -0.447 -1 -1 V 51.46 c 0 -0.553 0.447 -1 1 -1 s 1 0.447 1 1 v 7.129 C 66.613 59.142 66.166 59.589 65.613 59.589 z" style="stroke: none; stroke-width: 1; stroke-dasharray: none; stroke-linecap: butt; stroke-linejoin: miter; stroke-miterlimit: 10; fill: rgb(7,42,56); fill-rule: nonzero; opacity: 1;" transform=" matrix(1 0 0 1 0 0) " stroke-linecap="round" />
	<path d="M 69.178 56.024 h -7.13 c -0.553 0 -1 -0.447 -1 -1 s 0.447 -1 1 -1 h 7.13 c 0.553 0 1 0.447 1 1 S 69.73 56.024 69.178 56.024 z" style="stroke: none; stroke-width: 1; stroke-dasharray: none; stroke-linecap: butt; stroke-linejoin: miter; stroke-miterlimit: 10; fill: rgb(7,42,56); fill-rule: nonzero; opacity: 1;" transform=" matrix(1 0 0 1 0 0) " stroke-linecap="round" />
	<path d="M 78.888 62.743 c -0.553 0 -1 -0.447 -1 -1 V 23.965 c 0 -0.466 -0.379 -0.846 -0.846 -0.846 H 52.068 c -0.553 0 -1 -0.448 -1 -1 s 0.447 -1 1 -1 h 24.974 c 1.569 0 2.846 1.276 2.846 2.846 v 37.778 C 79.888 62.296 79.44 62.743 78.888 62.743 z" style="stroke: none; stroke-width: 1; stroke-dasharray: none; stroke-linecap: butt; stroke-linejoin: miter; stroke-miterlimit: 10; fill: rgb(7,42,56); fill-rule: nonzero; opacity: 1;" transform=" matrix(1 0 0 1 0 0) " stroke-linecap="round" />
	<path d="M 11.112 62.743 c -0.552 0 -1 -0.447 -1 -1 V 23.965 c 0 -1.569 1.277 -2.846 2.846 -2.846 h 24.974 c 0.552 0 1 0.448 1 1 s -0.448 1 -1 1 H 12.958 c -0.467 0 -0.846 0.379 -0.846 0.846 v 37.778 C 12.112 62.296 11.664 62.743 11.112 62.743 z" style="stroke: none; stroke-width: 1; stroke-dasharray: none; stroke-linecap: butt; stroke-linejoin: miter; stroke-miterlimit: 10; fill: rgb(7,42,56); fill-rule: nonzero; opacity: 1;" transform=" matrix(1 0 0 1 0 0) " stroke-linecap="round" />
	<path d="M 45.969 23.119 h -1.938 c -0.552 0 -1 -0.448 -1 -1 s 0.448 -1 1 -1 h 1.938 c 0.552 0 1 0.448 1 1 S 46.521 23.119 45.969 23.119 z" style="stroke: none; stroke-width: 1; stroke-dasharray: none; stroke-linecap: butt; stroke-linejoin: miter; stroke-miterlimit: 10; fill: rgb(7,42,56); fill-rule: nonzero; opacity: 1;" transform=" matrix(1 0 0 1 0 0) " stroke-linecap="round" />
</g>
</g>
</svg>