<svg xmlns="http://www.w3.org/2000/svg" width="256" height="256" xml:space="preserve"><g><g style="stroke:none;stroke-width:0;stroke-dasharray:none;stroke-linecap:butt;stroke-linejoin:miter;stroke-miterlimit:10;fill:none;fill-rule:nonzero;opacity:1"><path d="M35.813 54.013H4.514A4.52 4.52 0 0 1 0 49.498V4.514A4.52 4.52 0 0 1 4.514 0h31.299a4.52 4.52 0 0 1 4.514 4.514v44.984a4.519 4.519 0 0 1-4.514 4.515z" style="stroke:none;stroke-width:1;stroke-dasharray:none;stroke-linecap:butt;stroke-linejoin:miter;stroke-miterlimit:10;fill:#54c0eb;fill-rule:nonzero;opacity:1" transform="translate(1.964 1.964) scale(2.8008)"/><path d="M35.813 90H4.514A4.52 4.52 0 0 1 0 85.485V69.741a4.52 4.52 0 0 1 4.514-4.515h31.299a4.52 4.52 0 0 1 4.514 4.515v15.744A4.518 4.518 0 0 1 35.813 90z" style="stroke:none;stroke-width:1;stroke-dasharray:none;stroke-linecap:butt;stroke-linejoin:miter;stroke-miterlimit:10;fill:#f8b64c;fill-rule:nonzero;opacity:1" transform="translate(1.964 1.964) scale(2.8008)"/><path d="M85.485 90H54.187a4.52 4.52 0 0 1-4.515-4.515V40.501a4.52 4.52 0 0 1 4.515-4.514h31.299a4.52 4.52 0 0 1 4.515 4.514v44.984A4.521 4.521 0 0 1 85.485 90z" style="stroke:none;stroke-width:1;stroke-dasharray:none;stroke-linecap:butt;stroke-linejoin:miter;stroke-miterlimit:10;fill:#f1543f;fill-rule:nonzero;opacity:1" transform="translate(1.964 1.964) scale(2.8008)"/><path d="M85.485 24.773H54.187a4.52 4.52 0 0 1-4.515-4.515V4.514A4.52 4.52 0 0 1 54.187 0h31.299A4.52 4.52 0 0 1 90 4.514v15.745a4.52 4.52 0 0 1-4.515 4.514z" style="stroke:none;stroke-width:1;stroke-dasharray:none;stroke-linecap:butt;stroke-linejoin:miter;stroke-miterlimit:10;fill:#5ecb58;fill-rule:nonzero;opacity:1" transform="translate(1.964 1.964) scale(2.8008)"/></g></g></svg>