<?xml version="1.0" encoding="utf-8"?>
<!-- Svg Vector Icons : http://www.onlinewebfonts.com/icon -->
<!DOCTYPE svg PUBLIC "-//W3C//DTD SVG 1.1//EN" "http://www.w3.org/Graphics/SVG/1.1/DTD/svg11.dtd">
<svg version="1.1" xmlns="http://www.w3.org/2000/svg" xmlns:xlink="http://www.w3.org/1999/xlink" x="0px" y="0px" viewBox="0 0 1000 1000" enable-background="new 0 0 1000 1000" xml:space="preserve">
<metadata> Svg Vector Icons : http://www.onlinewebfonts.com/icon </metadata>
<g><g transform="translate(0.000000,511.000000) scale(0.100000,-0.100000)"><path d="M440.1,4893.8c-119.5-56.8-229.2-164.5-287.9-284l-45-90.1l-5.9-3926.9c-3.9-3429.4,0-3938.7,25.5-4024.8c35.3-121.4,152.8-262.5,280.1-338.8l92.1-52.9l1751-5.9l1750.9-3.9l47,43.1c64.6,60.7,62.7,174.3-5.9,229.2c-52.9,41.1-62.7,41.1-1772.5,41.1H547.9l-62.7,56.8l-64.6,56.8v3219.9v3217.9l4069.9,5.9l4067.9,3.9v-769.7c0-795.2,7.8-877.4,78.3-914.7c62.7-33.3,146.9-21.5,191.9,25.5l43.1,45.1v1547.3c0,1468.9-1.9,1549.2-37.2,1625.6c-52.9,117.5-164.5,233.1-282,289.9l-99.9,50.9H4496.3H538.1L440.1,4893.8z M8501.6,4570.7l56.8-56.8v-579.7v-579.7H4484.6H408.8l5.9,579.7l5.9,579.7l64.6,56.8l62.7,56.8h3948.5h3948.5L8501.6,4570.7z"/><path d="M1809.2,4408.1c-70.5-33.3-86.2-101.8-86.2-360.4c0-315.3,29.4-380,168.4-380c27.4,0,70.5,21.5,96,49c47,45,49,54.8,49,333c0,278.1-1.9,287.9-49,332.9C1938.4,4433.6,1877.7,4443.3,1809.2,4408.1z"/><path d="M6997.4,4384.6c-54.8-47-54.8-50.9-60.7-295.7c-7.8-282-2-325.1,58.8-381.9c54.8-50.9,133.2-50.9,199.8,2l50.9,39.2v301.6v301.6l-50.9,39.2C7126.7,4445.3,7064,4441.4,6997.4,4384.6z"/><path d="M1057.1,2653.2l-41.1-33.3V-139.7v-2759.6l41.1-41.1c39.2-41.1,50.9-41.1,1190.8-47c855.9-3.9,1163.4,2,1206.5,17.6c107.7,47,129.3,199.8,35.3,272.2c-43.1,35.3-78.3,39.2-338.8,39.2H2859v509.2v509.2h282c154.7,0,297.7,5.9,315.3,11.7c45,17.6,94,121.4,80.3,176.3c-7.8,25.5-31.3,64.6-54.9,86.2c-39.2,35.2-68.5,39.2-333,39.2H2859v509.2v509.2h391.7c391.7,0,393.7,0,440.7,49c50.9,50.9,64.6,141,29.4,205.6c-33.3,62.7-131.2,78.3-501.4,78.3H2859v499.4v499.4h607.2h607.2v-56.8c0-80.3,37.2-176.3,78.3-197.8c60.7-31.3,154.7-21.5,195.9,19.6c39.2,39.2,47,74.4,39.2,180.2l-2,50.9l217.4,7.8c211.5,5.9,221.3,7.8,266.4,60.7c50.9,60.7,58.8,105.8,25.5,176.3c-33.3,72.5-97.9,92.1-311.4,92.1h-193.9v509.2v509.2h617h615v-309.4c0-305.5,0-311.4,49-356.5c68.5-64.6,158.7-60.7,219.4,7.8c43.1,50.9,45,66.6,45,356.5v301.6h607.1h607.2v-190c0-213.5,21.5-276.1,105.8-317.3c49-23.5,64.6-21.5,121.4,5.9c39.2,17.6,68.5,49,74.4,74.4c5.9,25.5,13.7,180.2,17.6,346.7c9.8,295.7,7.8,303.6-37.2,348.6l-45.1,45H4243.7C1270.6,2688.5,1098.2,2686.5,1057.1,2653.2z M2545.6,1865.9v-509.2h-607.1h-607.2v509.2v509.2h607.2h607.1V1865.9z M4073.3,1865.9v-509.2h-607.2H2859v509.2v509.2h607.2h607.2V1865.9z M2545.6,524.3V24.8h-607.1h-607.2v499.4v499.4h607.2h607.1V524.3z M2545.6-817.4v-509.2h-607.1h-607.2v509.2v509.2h607.2h607.1V-817.4z M2545.6-2149.2v-509.2h-607.1h-607.2v509.2v509.2h607.2h607.1V-2149.2z"/><path d="M6394.2,1327.3C5209.2,1135.3,4277,314.7,3946-827.1c-164.5-569.9-154.7-1245.6,29.4-1811.7c272.2-844.1,940.1-1555.1,1752.9-1870.4c389.8-150.8,732.5-213.5,1155.6-211.5c1310.3,3.9,2430.6,797.1,2855.6,2017.3c129.3,370.2,160.6,569.9,160.6,1024.3c-2,340.8-7.8,432.8-47,607.1c-88.1,415.2-231.1,759.9-448.5,1087c-438.7,664-1092.9,1104.6-1907.6,1284.8C7254,1354.7,6650.7,1368.4,6394.2,1327.3z M7316.6,1033.5c566-97.9,1065.5-360.4,1486.6-783.4c393.7-391.7,646.3-850,763.8-1380.8c50.9-231.1,60.7-736.4,19.6-981.2c-158.6-951.9-830.4-1782.3-1727.5-2132.9c-852-334.9-1766.6-227.2-2542.2,301.6c-225.2,152.8-554.3,481.8-707,707C4151.6-2562.4,4006.7-1781,4200.6-1023C4465,20.9,5354.2,845.5,6413.7,1031.5C6629.2,1068.7,7101.2,1070.7,7316.6,1033.5z"/><path d="M6842.7,416.5C6735,373.4,6736.9,395,6736.9-711.6c0-1002.8,0-1022.4,41.1-1073.3l39.2-50.9h1063.5h1063.5l41.1,45c58.8,62.7,56.8,158.7-5.9,219.4l-47,49h-942.1h-940.1V-596v928.4l-43.1,39.2C6950.4,422.4,6895.5,438.1,6842.7,416.5z"/></g></g>
</svg>