<svg xmlns="http://www.w3.org/2000/svg" xmlns:xlink="http://www.w3.org/1999/xlink" version="1.1" width="256" height="256" viewBox="0 0 256 256" xml:space="preserve">
<desc>Created with Fabric.js 1.7.22</desc>
<defs>
</defs>
<g transform="translate(128 128) scale(0.72 0.72)" style="">
	<g style="stroke: none; stroke-width: 0; stroke-dasharray: none; stroke-linecap: butt; stroke-linejoin: miter; stroke-miterlimit: 10; fill: none; fill-rule: nonzero; opacity: 1;" transform="translate(-175.05 -175.05000000000004) scale(3.89 3.89)" >
	<path d="M 0 30.281 h 90 v -9.119 c 0 -3.696 -2.996 -6.691 -6.691 -6.691 H 6.691 C 2.996 14.471 0 17.467 0 21.162 V 30.281 z" style="stroke: none; stroke-width: 1; stroke-dasharray: none; stroke-linecap: butt; stroke-linejoin: miter; stroke-miterlimit: 10; fill: rgb(206,65,65); fill-rule: nonzero; opacity: 1;" transform=" matrix(1 0 0 1 0 0) " stroke-linecap="round" />
	<path d="M 6.691 83.242 h 76.617 c 3.696 0 6.691 -2.996 6.691 -6.691 V 30.281 H 0 V 76.55 C 0 80.246 2.996 83.242 6.691 83.242 z" style="stroke: none; stroke-width: 1; stroke-dasharray: none; stroke-linecap: butt; stroke-linejoin: miter; stroke-miterlimit: 10; fill: rgb(216,216,216); fill-rule: nonzero; opacity: 1;" transform=" matrix(1 0 0 1 0 0) " stroke-linecap="round" />
	<path d="M 18.995 22.185 c -1.156 0 -2.093 -0.937 -2.093 -2.093 V 8.852 c 0 -1.156 0.937 -2.093 2.093 -2.093 c 1.156 0 2.093 0.937 2.093 2.093 v 11.24 C 21.088 21.248 20.15 22.185 18.995 22.185 z" style="stroke: none; stroke-width: 1; stroke-dasharray: none; stroke-linecap: butt; stroke-linejoin: miter; stroke-miterlimit: 10; fill: rgb(65,67,86); fill-rule: nonzero; opacity: 1;" transform=" matrix(1 0 0 1 0 0) " stroke-linecap="round" />
	<path d="M 71.005 22.185 c -1.156 0 -2.093 -0.937 -2.093 -2.093 V 8.852 c 0 -1.156 0.937 -2.093 2.093 -2.093 c 1.156 0 2.093 0.937 2.093 2.093 v 11.24 C 73.098 21.248 72.161 22.185 71.005 22.185 z" style="stroke: none; stroke-width: 1; stroke-dasharray: none; stroke-linecap: butt; stroke-linejoin: miter; stroke-miterlimit: 10; fill: rgb(65,67,86); fill-rule: nonzero; opacity: 1;" transform=" matrix(1 0 0 1 0 0) " stroke-linecap="round" />
	<path d="M 14.791 45.565 h -1.499 c -0.742 0 -1.344 -0.602 -1.344 -1.344 v -1.499 c 0 -0.742 0.602 -1.344 1.344 -1.344 h 1.499 c 0.742 0 1.344 0.602 1.344 1.344 v 1.499 C 16.134 44.964 15.533 45.565 14.791 45.565 z" style="stroke: none; stroke-width: 1; stroke-dasharray: none; stroke-linecap: butt; stroke-linejoin: miter; stroke-miterlimit: 10; fill: rgb(65,67,86); fill-rule: nonzero; opacity: 1;" transform=" matrix(1 0 0 1 0 0) " stroke-linecap="round" />
	<path d="M 27.174 45.565 h -1.499 c -0.742 0 -1.344 -0.602 -1.344 -1.344 v -1.499 c 0 -0.742 0.602 -1.344 1.344 -1.344 h 1.499 c 0.742 0 1.344 0.602 1.344 1.344 v 1.499 C 28.518 44.964 27.916 45.565 27.174 45.565 z" style="stroke: none; stroke-width: 1; stroke-dasharray: none; stroke-linecap: butt; stroke-linejoin: miter; stroke-miterlimit: 10; fill: rgb(65,67,86); fill-rule: nonzero; opacity: 1;" transform=" matrix(1 0 0 1 0 0) " stroke-linecap="round" />
	<path d="M 39.558 45.565 h -1.499 c -0.742 0 -1.344 -0.602 -1.344 -1.344 v -1.499 c 0 -0.742 0.602 -1.344 1.344 -1.344 h 1.499 c 0.742 0 1.344 0.602 1.344 1.344 v 1.499 C 40.901 44.964 40.3 45.565 39.558 45.565 z" style="stroke: none; stroke-width: 1; stroke-dasharray: none; stroke-linecap: butt; stroke-linejoin: miter; stroke-miterlimit: 10; fill: rgb(65,67,86); fill-rule: nonzero; opacity: 1;" transform=" matrix(1 0 0 1 0 0) " stroke-linecap="round" />
	<path d="M 51.941 45.565 h -1.499 c -0.742 0 -1.344 -0.602 -1.344 -1.344 v -1.499 c 0 -0.742 0.602 -1.344 1.344 -1.344 h 1.499 c 0.742 0 1.344 0.602 1.344 1.344 v 1.499 C 53.285 44.964 52.683 45.565 51.941 45.565 z" style="stroke: none; stroke-width: 1; stroke-dasharray: none; stroke-linecap: butt; stroke-linejoin: miter; stroke-miterlimit: 10; fill: rgb(65,67,86); fill-rule: nonzero; opacity: 1;" transform=" matrix(1 0 0 1 0 0) " stroke-linecap="round" />
	<path d="M 64.325 45.565 h -1.499 c -0.742 0 -1.344 -0.602 -1.344 -1.344 v -1.499 c 0 -0.742 0.602 -1.344 1.344 -1.344 h 1.499 c 0.742 0 1.344 0.602 1.344 1.344 v 1.499 C 65.668 44.964 65.067 45.565 64.325 45.565 z" style="stroke: none; stroke-width: 1; stroke-dasharray: none; stroke-linecap: butt; stroke-linejoin: miter; stroke-miterlimit: 10; fill: rgb(65,67,86); fill-rule: nonzero; opacity: 1;" transform=" matrix(1 0 0 1 0 0) " stroke-linecap="round" />
	<path d="M 76.708 45.565 h -1.499 c -0.742 0 -1.344 -0.602 -1.344 -1.344 v -1.499 c 0 -0.742 0.602 -1.344 1.344 -1.344 h 1.499 c 0.742 0 1.344 0.602 1.344 1.344 v 1.499 C 78.052 44.964 77.45 45.565 76.708 45.565 z" style="stroke: none; stroke-width: 1; stroke-dasharray: none; stroke-linecap: butt; stroke-linejoin: miter; stroke-miterlimit: 10; fill: rgb(65,67,86); fill-rule: nonzero; opacity: 1;" transform=" matrix(1 0 0 1 0 0) " stroke-linecap="round" />
	<path d="M 14.791 57.949 h -1.499 c -0.742 0 -1.344 -0.602 -1.344 -1.344 v -1.499 c 0 -0.742 0.602 -1.344 1.344 -1.344 h 1.499 c 0.742 0 1.344 0.602 1.344 1.344 v 1.499 C 16.134 57.347 15.533 57.949 14.791 57.949 z" style="stroke: none; stroke-width: 1; stroke-dasharray: none; stroke-linecap: butt; stroke-linejoin: miter; stroke-miterlimit: 10; fill: rgb(65,67,86); fill-rule: nonzero; opacity: 1;" transform=" matrix(1 0 0 1 0 0) " stroke-linecap="round" />
	<path d="M 27.174 57.949 h -1.499 c -0.742 0 -1.344 -0.602 -1.344 -1.344 v -1.499 c 0 -0.742 0.602 -1.344 1.344 -1.344 h 1.499 c 0.742 0 1.344 0.602 1.344 1.344 v 1.499 C 28.518 57.347 27.916 57.949 27.174 57.949 z" style="stroke: none; stroke-width: 1; stroke-dasharray: none; stroke-linecap: butt; stroke-linejoin: miter; stroke-miterlimit: 10; fill: rgb(65,67,86); fill-rule: nonzero; opacity: 1;" transform=" matrix(1 0 0 1 0 0) " stroke-linecap="round" />
	<path d="M 39.558 57.949 h -1.499 c -0.742 0 -1.344 -0.602 -1.344 -1.344 v -1.499 c 0 -0.742 0.602 -1.344 1.344 -1.344 h 1.499 c 0.742 0 1.344 0.602 1.344 1.344 v 1.499 C 40.901 57.347 40.3 57.949 39.558 57.949 z" style="stroke: none; stroke-width: 1; stroke-dasharray: none; stroke-linecap: butt; stroke-linejoin: miter; stroke-miterlimit: 10; fill: rgb(65,67,86); fill-rule: nonzero; opacity: 1;" transform=" matrix(1 0 0 1 0 0) " stroke-linecap="round" />
	<path d="M 51.941 57.949 h -1.499 c -0.742 0 -1.344 -0.602 -1.344 -1.344 v -1.499 c 0 -0.742 0.602 -1.344 1.344 -1.344 h 1.499 c 0.742 0 1.344 0.602 1.344 1.344 v 1.499 C 53.285 57.347 52.683 57.949 51.941 57.949 z" style="stroke: none; stroke-width: 1; stroke-dasharray: none; stroke-linecap: butt; stroke-linejoin: miter; stroke-miterlimit: 10; fill: rgb(65,67,86); fill-rule: nonzero; opacity: 1;" transform=" matrix(1 0 0 1 0 0) " stroke-linecap="round" />
	<path d="M 64.325 57.949 h -1.499 c -0.742 0 -1.344 -0.602 -1.344 -1.344 v -1.499 c 0 -0.742 0.602 -1.344 1.344 -1.344 h 1.499 c 0.742 0 1.344 0.602 1.344 1.344 v 1.499 C 65.668 57.347 65.067 57.949 64.325 57.949 z" style="stroke: none; stroke-width: 1; stroke-dasharray: none; stroke-linecap: butt; stroke-linejoin: miter; stroke-miterlimit: 10; fill: rgb(65,67,86); fill-rule: nonzero; opacity: 1;" transform=" matrix(1 0 0 1 0 0) " stroke-linecap="round" />
	<path d="M 76.708 57.949 h -1.499 c -0.742 0 -1.344 -0.602 -1.344 -1.344 v -1.499 c 0 -0.742 0.602 -1.344 1.344 -1.344 h 1.499 c 0.742 0 1.344 0.602 1.344 1.344 v 1.499 C 78.052 57.347 77.45 57.949 76.708 57.949 z" style="stroke: none; stroke-width: 1; stroke-dasharray: none; stroke-linecap: butt; stroke-linejoin: miter; stroke-miterlimit: 10; fill: rgb(65,67,86); fill-rule: nonzero; opacity: 1;" transform=" matrix(1 0 0 1 0 0) " stroke-linecap="round" />
	<path d="M 14.791 70.332 h -1.499 c -0.742 0 -1.344 -0.602 -1.344 -1.344 V 67.49 c 0 -0.742 0.602 -1.344 1.344 -1.344 h 1.499 c 0.742 0 1.344 0.602 1.344 1.344 v 1.499 C 16.134 69.731 15.533 70.332 14.791 70.332 z" style="stroke: none; stroke-width: 1; stroke-dasharray: none; stroke-linecap: butt; stroke-linejoin: miter; stroke-miterlimit: 10; fill: rgb(65,67,86); fill-rule: nonzero; opacity: 1;" transform=" matrix(1 0 0 1 0 0) " stroke-linecap="round" />
	<path d="M 27.174 70.332 h -1.499 c -0.742 0 -1.344 -0.602 -1.344 -1.344 V 67.49 c 0 -0.742 0.602 -1.344 1.344 -1.344 h 1.499 c 0.742 0 1.344 0.602 1.344 1.344 v 1.499 C 28.518 69.731 27.916 70.332 27.174 70.332 z" style="stroke: none; stroke-width: 1; stroke-dasharray: none; stroke-linecap: butt; stroke-linejoin: miter; stroke-miterlimit: 10; fill: rgb(65,67,86); fill-rule: nonzero; opacity: 1;" transform=" matrix(1 0 0 1 0 0) " stroke-linecap="round" />
	<path d="M 39.558 70.332 h -1.499 c -0.742 0 -1.344 -0.602 -1.344 -1.344 V 67.49 c 0 -0.742 0.602 -1.344 1.344 -1.344 h 1.499 c 0.742 0 1.344 0.602 1.344 1.344 v 1.499 C 40.901 69.731 40.3 70.332 39.558 70.332 z" style="stroke: none; stroke-width: 1; stroke-dasharray: none; stroke-linecap: butt; stroke-linejoin: miter; stroke-miterlimit: 10; fill: rgb(65,67,86); fill-rule: nonzero; opacity: 1;" transform=" matrix(1 0 0 1 0 0) " stroke-linecap="round" />
	<path d="M 51.941 70.332 h -1.499 c -0.742 0 -1.344 -0.602 -1.344 -1.344 V 67.49 c 0 -0.742 0.602 -1.344 1.344 -1.344 h 1.499 c 0.742 0 1.344 0.602 1.344 1.344 v 1.499 C 53.285 69.731 52.683 70.332 51.941 70.332 z" style="stroke: none; stroke-width: 1; stroke-dasharray: none; stroke-linecap: butt; stroke-linejoin: miter; stroke-miterlimit: 10; fill: rgb(65,67,86); fill-rule: nonzero; opacity: 1;" transform=" matrix(1 0 0 1 0 0) " stroke-linecap="round" />
	<path d="M 64.325 70.332 h -1.499 c -0.742 0 -1.344 -0.602 -1.344 -1.344 V 67.49 c 0 -0.742 0.602 -1.344 1.344 -1.344 h 1.499 c 0.742 0 1.344 0.602 1.344 1.344 v 1.499 C 65.668 69.731 65.067 70.332 64.325 70.332 z" style="stroke: none; stroke-width: 1; stroke-dasharray: none; stroke-linecap: butt; stroke-linejoin: miter; stroke-miterlimit: 10; fill: rgb(65,67,86); fill-rule: nonzero; opacity: 1;" transform=" matrix(1 0 0 1 0 0) " stroke-linecap="round" />
</g>
</g>
</svg>