<svg xmlns="http://www.w3.org/2000/svg" viewBox="0 0 1691.9 1061.87"><defs><style>.cls-1{isolation:isolate;}.cls-14,.cls-2{opacity:0.4;}.cls-11,.cls-2{mix-blend-mode:multiply;}.cls-3{fill:#b3b3b3;}.cls-4{fill:#00395e;}.cls-5{fill:#00558d;}.cls-6{fill:#ccc;}.cls-7{fill:#002b47;}.cls-8{fill:#999;}.cls-9{fill:gray;}.cls-10{fill:#e6e6e6;}.cls-11{opacity:0.41;}.cls-12{fill:#666;}.cls-13,.cls-14{fill:#fff;}</style></defs><g class="cls-1"><g id="Layer_2" data-name="Layer 2"><g id="Layer_1-2" data-name="Layer 1"><path class="cls-2" d="M950.63,1013.61c-224.51,0-425.71,3.25-561.64,8.38-33.54-1.93-73.62-3-116.68-3-118,0-213.58,8.42-213.58,18.8s95.62,18.8,213.58,18.8c43.06,0,83.14-1.12,116.68-3,135.93,5.13,337.13,8.38,561.64,8.38,409.39,0,741.27-10.8,741.27-24.13S1360,1013.61,950.63,1013.61Z"/><path class="cls-3" d="M1504.3,916.07a121.68,121.68,0,0,1-121.67,121.67h109.5A121.68,121.68,0,0,0,1613.8,916.07V343H1504.3Z"/><path class="cls-4" d="M1492.13,149.55h-109.5A121.68,121.68,0,0,1,1504.3,271.22v47.46h109.5V271.22A121.68,121.68,0,0,0,1492.13,149.55Z"/><path class="cls-5" d="M1504.3,271.22a121.68,121.68,0,0,0-121.67-121.67H401.16A121.68,121.68,0,0,0,279.49,271.22v47.46H1504.3Z"/><path class="cls-6" d="M1504.3,916.07V343H279.49V916.07a121.68,121.68,0,0,0,121.67,121.67h981.47A121.68,121.68,0,0,0,1504.3,916.07Z"/><rect class="cls-7" x="1504.3" y="318.68" width="109.5" height="24.34"/><rect class="cls-4" x="279.49" y="318.68" width="1224.81" height="24.34"/><rect class="cls-8" x="384.89" y="395.54" width="118.96" height="95.75"/><rect class="cls-8" x="533.82" y="395.54" width="118.96" height="95.75"/><rect class="cls-8" x="682.75" y="395.54" width="118.96" height="95.75"/><rect class="cls-8" x="831.67" y="395.54" width="118.96" height="95.75"/><rect class="cls-8" x="980.6" y="395.54" width="118.96" height="95.75"/><rect class="cls-5" x="1129.52" y="395.54" width="118.96" height="95.75"/><rect class="cls-5" x="1278.45" y="395.54" width="118.96" height="95.75"/><rect class="cls-8" x="384.89" y="515.93" width="118.96" height="95.75"/><rect class="cls-8" x="533.82" y="515.93" width="118.96" height="95.75"/><rect class="cls-8" x="682.75" y="515.93" width="118.96" height="95.75"/><rect class="cls-8" x="831.67" y="515.93" width="118.96" height="95.75"/><rect class="cls-8" x="980.6" y="515.93" width="118.96" height="95.75"/><rect class="cls-5" x="1129.52" y="515.93" width="118.96" height="95.75"/><rect class="cls-5" x="1278.45" y="515.93" width="118.96" height="95.75"/><rect class="cls-8" x="384.89" y="636.32" width="118.96" height="95.75"/><rect class="cls-8" x="533.82" y="636.32" width="118.96" height="95.75"/><rect class="cls-8" x="682.75" y="636.32" width="118.96" height="95.75"/><rect class="cls-8" x="831.67" y="636.32" width="118.96" height="95.75"/><rect class="cls-8" x="980.6" y="636.32" width="118.96" height="95.75"/><rect class="cls-5" x="1129.52" y="636.32" width="118.96" height="95.75"/><rect class="cls-5" x="1278.45" y="636.32" width="118.96" height="95.75"/><rect class="cls-8" x="384.89" y="756.71" width="118.96" height="95.75"/><rect class="cls-8" x="533.82" y="756.71" width="118.96" height="95.75"/><rect class="cls-8" x="682.75" y="756.71" width="118.96" height="95.75"/><rect class="cls-8" x="831.67" y="756.71" width="118.96" height="95.75"/><rect class="cls-8" x="980.6" y="756.71" width="118.96" height="95.75"/><rect class="cls-5" x="1129.52" y="756.71" width="118.96" height="95.75"/><rect class="cls-5" x="1278.45" y="756.71" width="118.96" height="95.75"/><rect class="cls-8" x="384.89" y="877.1" width="118.96" height="95.75"/><rect class="cls-8" x="533.82" y="877.1" width="118.96" height="95.75"/><rect class="cls-8" x="682.75" y="877.1" width="118.96" height="95.75"/><rect class="cls-8" x="831.67" y="877.1" width="118.96" height="95.75"/><rect class="cls-8" x="980.6" y="877.1" width="118.96" height="95.75"/><rect class="cls-5" x="1129.52" y="877.1" width="118.96" height="95.75"/><rect class="cls-5" x="1278.45" y="877.1" width="118.96" height="95.75"/><ellipse class="cls-4" cx="646.67" cy="241.82" rx="27.01" ry="35.83"/><path class="cls-9" d="M677.73,0H637.12a115.43,115.43,0,0,0-115.3,115.3v36.06a115.43,115.43,0,0,0,115.3,115.3,25.86,25.86,0,0,0,0-51.71,63.67,63.67,0,0,1-63.59-63.59V115.3a63.67,63.67,0,0,1,63.59-63.59h40.61a63.67,63.67,0,0,1,63.6,63.59v34.25H793V115.3A115.43,115.43,0,0,0,677.73,0Z"/><path class="cls-3" d="M629,255.51a99.2,99.2,0,0,1-99.08-99.08V109.22c0-26.08,11.5-52.54,31.55-72.6S608,5.07,634.08,5.07h40.61a9.63,9.63,0,1,1,0,19.26H634.08c-44.43,0-84.89,40.46-84.89,84.89v47.21A79.91,79.91,0,0,0,629,236.24a9.64,9.64,0,0,1,0,19.27Z"/><ellipse class="cls-4" cx="1134.56" cy="241.82" rx="27.01" ry="35.83"/><path class="cls-9" d="M1165.63,0H1125a115.43,115.43,0,0,0-115.3,115.3v36.06A115.43,115.43,0,0,0,1125,266.66a25.86,25.86,0,1,0,0-51.71,63.67,63.67,0,0,1-63.59-63.59V115.3A63.67,63.67,0,0,1,1125,51.71h40.62a63.67,63.67,0,0,1,63.59,63.59v34.25h51.71V115.3A115.43,115.43,0,0,0,1165.63,0Z"/><path class="cls-3" d="M1116.9,255.51a99.2,99.2,0,0,1-99.08-99.08V109.22c0-26.08,11.5-52.54,31.56-72.6S1095.89,5.07,1122,5.07h40.62a9.63,9.63,0,1,1,0,19.26H1122c-44.43,0-84.88,40.46-84.88,84.89v47.21a79.9,79.9,0,0,0,79.81,79.81,9.64,9.64,0,0,1,0,19.27Z"/><ellipse class="cls-2" cx="372.8" cy="783.81" rx="346.91" ry="253.94"/><path class="cls-4" d="M607.13,779.16c0,142.81-132.84,258.58-296.69,258.58q-12.74,0-24.79-.33h0c-23.44-.65-45-2.25-64.82-4.8C102.66,1008.73,13.73,904.33,13.73,779.16c0-.92,0-1.83,0-2.76C15,659.85,93.32,561.76,200.19,530.79c25.67-5.41,54.4-8.73,86.47-9.8q11.59-.39,23.78-.4C474.29,520.59,607.13,636.36,607.13,779.16Z"/><path class="cls-5" d="M530.88,779.16c0,138.34-108.63,251.3-245.23,258.25h0q-6.62.33-13.31.33a259.33,259.33,0,0,1-51.51-5.13C102.66,1008.73,13.73,904.33,13.73,779.16c0-.92,0-1.83,0-2.76C15,659.85,93.32,561.76,200.19,530.79a258.56,258.56,0,0,1,72.12-10.2q7.23,0,14.35.4C422.79,528.43,530.88,641.18,530.88,779.16Z"/><path class="cls-8" d="M459.06,779.16c0,.78,0,1.56,0,2.34-1.22,98.84-79.22,179.19-177.11,184.17h0c-1.3.07-2.62.12-4,.15-1.88.07-3.75.1-5.65.1A186.56,186.56,0,0,1,85.56,779.16c0-.67,0-1.33,0-2A186.59,186.59,0,0,1,272.31,592.42c1.93,0,3.85,0,5.75.09,1.54,0,3.08.11,4.61.19C379.45,598,456.62,677,459,774.52c0,.77,0,1.54.05,2.31S459.06,778.38,459.06,779.16Z"/><path class="cls-10" d="M459.06,779.16c0,.78,0,1.56,0,2.34-1.22,98.84-79.22,179.19-177.11,184.17h0c-1.3.07-2.62.12-4,.15a165.76,165.76,0,0,1-29.64-3.61C168,945,107.6,869.56,107.6,779.16c0-.67,0-1.33,0-2,.83-84.19,54.07-155,126.71-177.39a165.27,165.27,0,0,1,43.74-7.28c1.54,0,3.08.11,4.61.19C379.45,598,456.62,677,459,774.52c0,.77,0,1.54.05,2.31S459.06,778.38,459.06,779.16Z"/><g class="cls-11"><path d="M275.34,796.4a15.17,15.17,0,0,1-8.76-2.78l-68.72-48.48a15.21,15.21,0,1,1,17.54-24.85l57.88,40.84,85.48-91.52A15.21,15.21,0,0,1,381,690.37L286.46,791.58A15.19,15.19,0,0,1,275.34,796.4Z"/><polygon points="285.49 736.77 275.35 913.19 265.21 736.77 285.49 736.77"/><path d="M298.56,781.2a23.22,23.22,0,0,1-22,23.18h0c-.39,0-.79,0-1.19,0a23.19,23.19,0,0,1-23.21-23.21V781a23.17,23.17,0,0,1,23.21-23l1.29,0A23.21,23.21,0,0,1,298.56,781.2Z"/></g><path class="cls-5" d="M272.3,794.38a15.22,15.22,0,0,1-8.76-2.78l-68.72-48.49a15.21,15.21,0,1,1,17.54-24.85l57.88,40.84,85.47-91.52a15.21,15.21,0,0,1,22.23,20.77l-94.52,101.2A15.2,15.2,0,0,1,272.3,794.38Z"/><polygon class="cls-12" points="282.45 734.74 272.31 911.16 262.17 734.74 282.45 734.74"/><path class="cls-6" d="M295.52,779.17a23.22,23.22,0,0,1-22,23.18h0c-.39,0-.79,0-1.19,0a23.53,23.53,0,0,1-4.63-.46,23.23,23.23,0,0,1-18.58-22.75v-.25a23.23,23.23,0,0,1,16.73-22,23.48,23.48,0,0,1,6.48-.91l1.29,0A23.21,23.21,0,0,1,295.52,779.17Z"/><circle class="cls-13" cx="378.09" cy="877.45" r="28.13"/><circle class="cls-13" cx="172.61" cy="694.6" r="28.13"/><circle class="cls-13" cx="413.66" cy="840.1" r="12.75"/><circle class="cls-13" cx="141.59" cy="734.74" r="12.75" transform="translate(-272.42 111.45) rotate(-22.69)"/><path class="cls-14" d="M378.09,671.2c0,36.28-46,35.77-102.74,35.77s-102.74.51-102.74-35.77,46-65.67,102.74-65.67S378.09,634.93,378.09,671.2Z"/><path class="cls-5" d="M12.32,630.26,257.69,491.93c-31.07-55.12-111.19-68.84-178.95-30.64S-18.76,575.14,12.32,630.26Z"/><path class="cls-14" d="M134.17,484.16c15.53,19.31-9.18,38.73-39.4,63s-54.49,44.25-70,24.93-3.62-54.66,26.6-78.94S118.65,464.84,134.17,484.16Z"/><path class="cls-5" d="M572.47,630.26,327.1,491.93c31.07-55.12,111.19-68.84,179-30.64S603.55,575.14,572.47,630.26Z"/><path class="cls-14" d="M375.09,481c-4.13,24.43,26.91,29.33,65.13,35.8s69.15,12,73.28-12.39S490,455,451.78,448.49,379.22,456.59,375.09,481Z"/></g></g></g></svg>